# Blender v2.79 (sub 0) OBJ File: ''
# www.blender.org
mtllib simple_cloth.mtl
o Plane
v -1.000000 -0.984808 0.173648
v 1.000000 -0.984808 0.173648
v -1.000000 0.984808 -0.173648
v 1.000000 0.984808 -0.173648
v -1.000000 0.000000 0.000000
v 0.000000 -0.984808 0.173648
v 1.000000 0.000000 0.000000
v 0.000000 0.984808 -0.173648
v 0.000000 0.000000 0.000000
v -1.000000 -0.492404 0.086824
v 0.500000 -0.984808 0.173648
v 1.000000 0.492404 -0.086824
v -0.500000 0.984808 -0.173648
v -1.000000 0.492404 -0.086824
v -0.500000 -0.984808 0.173648
v 1.000000 -0.492404 0.086824
v 0.500000 0.984808 -0.173648
v 0.000000 0.492404 -0.086824
v 0.000000 -0.492404 0.086824
v -0.500000 0.000000 0.000000
v 0.500000 0.000000 0.000000
v 0.500000 -0.492404 0.086824
v -0.500000 -0.492404 0.086824
v -0.500000 0.492404 -0.086824
v 0.500000 0.492404 -0.086824
vn 0.0000 0.1736 0.9848
usemtl None
s off
f 25//1 12//1 4//1 17//1
f 24//1 18//1 8//1 13//1
f 23//1 19//1 9//1 20//1
f 22//1 16//1 7//1 21//1
f 19//1 22//1 21//1 9//1
f 6//1 11//1 22//1 19//1
f 11//1 2//1 16//1 22//1
f 10//1 23//1 20//1 5//1
f 1//1 15//1 23//1 10//1
f 15//1 6//1 19//1 23//1
f 14//1 24//1 13//1 3//1
f 5//1 20//1 24//1 14//1
f 20//1 9//1 18//1 24//1
f 18//1 25//1 17//1 8//1
f 9//1 21//1 25//1 18//1
f 21//1 7//1 12//1 25//1
